# xmcd
#
# Track frame offsets: 
#        150
#        12697
#        29097
#        48958
#        64008
#        78885
#        97347
#        110334
#        125679
#        148476
#        158144
#        170007
#        180938
#        192885
#
# Disc length: 2826 seconds
#
# Revision: 0
# Processed by: cddbd v1.5.2PL0 Copyright (c) Steve Scherf et al.
# Submitted via: ExactAudioCopy v1.0b1
#
DISCID=c80b080e
DTITLE=The Pigs - Horses
DYEAR=2009
DGENRE=Bluegrass
TTITLE0=Single Ladies (Put a Ring On It)
TTITLE1=Hey Christina
TTITLE2=Macho Moisturiser
TTITLE3=Ignition Remix
TTITLE4=Morning Movement
TTITLE5=Killing In The Name
TTITLE6=The Machines Are Singing To You
TTITLE7=Little Bob Dreams
TTITLE8=O The Gambler
TTITLE9=Usin' Up Air
TTITLE10=Push It!
TTITLE11=Have You Ever?
TTITLE12=At The Mall
TTITLE13=Pump Up The Jam_Where's Your Head At?_One More Time
EXTD=
EXTT0=
EXTT1=
EXTT2=
EXTT3=
EXTT4=
EXTT5=
EXTT6=
EXTT7=
EXTT8=
EXTT9=
EXTT10=
EXTT11=
EXTT12=
EXTT13=
PLAYORDER=
